<?xml version="1.0" encoding="UTF-8" standalone="no"?>
<!-- Created with Inkscape (http://www.inkscape.org/) -->

<svg
   xmlns:dc="http://purl.org/dc/elements/1.1/"
   xmlns:cc="http://creativecommons.org/ns#"
   xmlns:rdf="http://www.w3.org/1999/02/22-rdf-syntax-ns#"
   xmlns:svg="http://www.w3.org/2000/svg"
   xmlns="http://www.w3.org/2000/svg"
   xmlns:sodipodi="http://sodipodi.sourceforge.net/DTD/sodipodi-0.dtd"
   xmlns:inkscape="http://www.inkscape.org/namespaces/inkscape"
   width="73.737244mm"
   height="65.67337mm"
   viewBox="0 0 73.737244 65.67337"
   version="1.1"
   id="svg8"
   inkscape:version="0.92.2 (5c3e80d, 2017-08-06)"
   sodipodi:docname="Background.svg">
  <defs
     id="defs2" />
  <sodipodi:namedview
     id="base"
     pagecolor="#ffffff"
     bordercolor="#666666"
     borderopacity="1.0"
     inkscape:pageopacity="0.0"
     inkscape:pageshadow="2"
     inkscape:zoom="2.8"
     inkscape:cx="102.63436"
     inkscape:cy="111.81455"
     inkscape:document-units="mm"
     inkscape:current-layer="layer1"
     showgrid="false"
     inkscape:window-width="1920"
     inkscape:window-height="1017"
     inkscape:window-x="-8"
     inkscape:window-y="-8"
     inkscape:window-maximized="1" />
  <metadata
     id="metadata5">
    <rdf:RDF>
      <cc:Work
         rdf:about="">
        <dc:format>image/svg+xml</dc:format>
        <dc:type
           rdf:resource="http://purl.org/dc/dcmitype/StillImage" />
        <dc:title></dc:title>
      </cc:Work>
    </rdf:RDF>
  </metadata>
  <g
     inkscape:label="Layer 1"
     inkscape:groupmode="layer"
     id="layer1"
     transform="translate(-71.616345,-101.52291)">
    <path
       style="opacity:0.74500002;fill:#333333;fill-opacity:0.91764706;stroke-width:0.71428573;stroke-miterlimit:4;stroke-dasharray:none"
       d="m 71.890032,158.76269 c -0.03195,-4.63848 -0.07971,-14.83321 -0.106135,-22.65495 -0.02643,-7.82175 -0.07494,-18.80313 -0.107802,-24.40309 l -0.05975,-10.18174 h 36.868615 36.86863 l -0.0547,9.00056 c -0.0523,8.61696 -0.23546,51.36224 -0.2354,54.9483 l 2e-5,1.72451 H 108.50583 71.948119 Z m 71.442618,6.99464 c 0.17874,-0.17874 0.25751,-0.37417 0.2909,-0.72166 0.0418,-0.43443 0.0204,-0.50198 -0.24202,-0.76437 -0.25256,-0.25255 -0.35296,-0.28782 -0.8195,-0.28782 -0.29243,0 -0.65115,0.0618 -0.79716,0.13729 -0.57828,0.29904 -0.62847,1.2098 -0.0933,1.69213 0.27372,0.24667 0.34862,0.26674 0.85792,0.2299 0.44242,-0.032 0.60878,-0.0911 0.80312,-0.28547 z m -12.62911,0.0672 c 0.54457,-0.28161 0.73954,-1.11975 0.36982,-1.58978 -0.25462,-0.3237 -0.80622,-0.47123 -1.32557,-0.35454 -0.6021,0.13529 -0.79548,0.38115 -0.79548,1.01135 0,0.47337 0.0303,0.55189 0.30859,0.80058 0.2448,0.21872 0.39718,0.27573 0.73703,0.27573 0.23563,0 0.55316,-0.0645 0.70561,-0.14334 z m -54.902339,-0.4 c 0.523647,-0.47206 0.466627,-1.38618 -0.104905,-1.68173 -0.146013,-0.0755 -0.504735,-0.13728 -0.797158,-0.13728 -0.466542,0 -0.566938,0.0353 -0.819496,0.28782 -0.261282,0.26128 -0.283663,0.33107 -0.242745,0.75691 0.07036,0.73221 0.410927,1.0172 1.228691,1.02815 0.360113,0.005 0.503573,-0.0447 0.735613,-0.25387 z m 12.39906,-0.11037 c 0.278331,-0.24869 0.308597,-0.3272 0.308597,-0.80057 0,-0.63021 -0.193387,-0.87607 -0.795481,-1.01135 -1.094893,-0.24601 -1.856044,0.59603 -1.376696,1.52299 0.19009,0.36759 0.5627,0.55627 1.107628,0.56088 0.363834,0.003 0.504973,-0.0477 0.755952,-0.27195 z m 50.456659,-2.09837 c 1.08758,-0.23076 1.93423,-0.90732 2.40945,-1.92538 0.23155,-0.49603 0.26465,-0.67927 0.26459,-1.46465 -8e-5,-1.02791 -0.16665,-1.50872 -0.74412,-2.1479 -0.53919,-0.59682 -1.32539,-0.89955 -2.46921,-0.95078 -2.04685,-0.0917 -3.32313,0.64759 -3.78125,2.19023 -0.42742,1.43929 0.1684,3.21743 1.31568,3.92649 0.69353,0.42863 1.98463,0.58846 3.00486,0.37199 z m -57.358474,-0.50638 c 2.424618,-0.86096 2.643047,-4.89648 0.32403,-5.98654 -0.671576,-0.31568 -1.328198,-0.42125 -2.322415,-0.37337 -1.49557,0.072 -2.447361,0.63766 -2.967886,1.7638 -0.161354,0.34908 -0.201909,0.61705 -0.201967,1.33448 -6.4e-5,0.81024 0.02859,0.95753 0.2941,1.5119 0.474321,0.99036 1.190196,1.57937 2.257168,1.85718 0.608973,0.15856 2.032437,0.10011 2.61697,-0.10745 z m 31.967854,0.0406 c 4.47311,-0.38506 8.57946,-1.58436 11.82927,-3.45485 3.90934,-2.25009 6.8918,-5.41515 9.06201,-9.61685 2.32585,-4.503 3.53367,-9.86844 3.53352,-15.69667 -2.2e-4,-8.03745 -2.96968,-15.12313 -8.23658,-19.65396 -4.41976,-3.80209 -10.14714,-5.92632 -17.70013,-6.56483 -1.46121,-0.12353 -6.09462,-0.12374 -7.55952,-2.6e-4 -7.634257,0.64306 -13.531846,3.07037 -17.770233,7.31383 -2.562696,2.56577 -4.369049,5.50727 -5.647589,9.19665 -1.063353,3.06843 -1.575854,6.15876 -1.575854,9.50224 0,6.5903 2.570623,13.92848 6.676166,19.05797 0.839779,1.04923 2.79827,3.00856 3.812674,3.81432 2.533238,2.01219 5.769793,3.70741 8.929915,4.67724 2.443271,0.74982 4.537451,1.12914 8.079011,1.46335 0.81907,0.0773 5.54536,0.0499 6.56734,-0.0381 z m 30.00937,-9.03858 c 0.61935,-0.36586 0.707,-1.22472 0.17101,-1.67573 -0.23858,-0.20075 -0.38402,-0.24193 -0.8545,-0.24193 -0.50067,0 -0.59929,0.0323 -0.8432,0.27621 -0.22942,0.22943 -0.27621,0.35392 -0.27621,0.73493 0,0.49834 0.17849,0.84178 0.50621,0.97403 0.34099,0.13761 1.00826,0.10287 1.29669,-0.0675 z m -67.509254,-0.5362 c 0.341146,-0.39661 0.314912,-1.11407 -0.05423,-1.48322 -0.238691,-0.23869 -0.347202,-0.27621 -0.798753,-0.27621 -0.66227,0 -0.956807,0.13511 -1.14109,0.52346 -0.185039,0.38994 -0.183718,0.55029 0.0079,0.95403 0.218551,0.46056 0.53599,0.61112 1.206629,0.57229 0.468596,-0.0271 0.593029,-0.0735 0.779576,-0.29035 z m -0.591529,-36.1456 c 0.298728,-0.28064 0.38553,-0.75972 0.212627,-1.17354 -0.187007,-0.44757 -0.487399,-0.63153 -1.031235,-0.63153 -0.643278,0 -0.963977,0.19417 -1.157464,0.70081 -0.15343,0.40175 -0.152731,0.43808 0.01503,0.78084 0.23213,0.47425 0.52107,0.61298 1.190474,0.5716 0.402728,-0.0249 0.600779,-0.0887 0.770559,-0.24818 z m 68.513223,-0.13928 c 0.12853,-0.0842 0.28213,-0.3148 0.34133,-0.5124 0.28893,-0.96434 -0.77833,-1.75154 -1.74972,-1.29058 -0.36958,0.17538 -0.52347,0.47713 -0.52347,1.02644 0,0.44613 0.30076,0.85431 0.69235,0.93963 0.36122,0.0787 0.99844,-0.005 1.23951,-0.16309 z m -63.523004,-4.60686 c 0.651259,-0.13818 1.312627,-0.4757 1.709166,-0.87225 1.221332,-1.22133 1.043122,-3.88942 -0.332036,-4.97112 -0.624422,-0.49117 -1.092237,-0.61709 -2.293795,-0.61742 -1.050337,-2.7e-4 -1.177356,0.0197 -1.723033,0.27179 -0.642723,0.29686 -1.305578,0.92825 -1.60991,1.53349 -0.81271,1.61628 -0.27559,3.60877 1.178235,4.37077 0.682791,0.35787 2.105191,0.48974 3.071373,0.28474 z m 59.217874,-0.28189 c 0.90007,-0.20303 1.62325,-0.79312 2.01418,-1.64349 0.17819,-0.3876 0.21722,-0.63373 0.21728,-1.37017 6e-5,-0.77468 -0.0344,-0.97117 -0.25132,-1.43396 -0.6976,-1.48811 -2.2966,-2.26151 -4.09635,-1.98132 -1.81815,0.28306 -2.73931,1.43154 -2.73931,3.41528 0,0.79116 0.0313,0.96142 0.26364,1.43457 0.14501,0.29529 0.41946,0.67369 0.6099,0.8409 0.90462,0.79427 2.45733,1.08211 3.98198,0.73819 z m -51.617342,-7.11109 c 0.400029,-0.46506 0.255754,-1.35846 -0.262673,-1.62655 -0.340016,-0.17583 -0.96347,-0.1717 -1.312304,0.009 -0.498528,0.2578 -0.706554,0.95731 -0.432004,1.45266 0.20534,0.37048 0.514741,0.49001 1.180158,0.45594 0.520996,-0.0267 0.633815,-0.0663 0.826823,-0.29073 z m -12.641392,0.0885 c 0.615672,-0.31837 0.656476,-1.30453 0.07351,-1.77675 -0.263826,-0.2137 -1.162555,-0.22603 -1.456735,-0.02 -0.632375,0.44294 -0.638026,1.45149 -0.01008,1.79953 0.300458,0.16653 1.068856,0.16499 1.393306,-0.003 z m 56.161174,-0.32716 c 0.53181,-0.5952 0.2285,-1.47899 -0.59193,-1.72479 -0.78639,-0.23561 -1.50376,0.26754 -1.50459,1.05528 -5.3e-4,0.66369 0.54812,1.06731 1.3642,1.00326 0.37939,-0.0298 0.51659,-0.0923 0.73232,-0.33375 z m 12.02067,0.14107 c 0.40007,-0.16716 0.62353,-0.48473 0.62353,-0.88614 0,-0.67665 -0.50974,-1.15546 -1.23008,-1.15546 -1.14509,0 -1.56768,1.50445 -0.564,2.00785 0.39796,0.1996 0.74938,0.20973 1.17055,0.0337 z"
       id="path942"
       inkscape:connector-curvature="0" />
  </g>
</svg>
