<?xml version="1.0" encoding="UTF-8" standalone="no"?>
<!-- Created with Inkscape (http://www.inkscape.org/) -->

<svg
   xmlns:dc="http://purl.org/dc/elements/1.1/"
   xmlns:cc="http://creativecommons.org/ns#"
   xmlns:rdf="http://www.w3.org/1999/02/22-rdf-syntax-ns#"
   xmlns:svg="http://www.w3.org/2000/svg"
   xmlns="http://www.w3.org/2000/svg"
   xmlns:sodipodi="http://sodipodi.sourceforge.net/DTD/sodipodi-0.dtd"
   xmlns:inkscape="http://www.inkscape.org/namespaces/inkscape"
   width="74.758965mm"
   height="34.724014mm"
   viewBox="0 0 74.758965 34.724014"
   version="1.1"
   id="svg8"
   inkscape:version="0.92.2 (5c3e80d, 2017-08-06)"
   sodipodi:docname="dropDownBackground.svg">
  <defs
     id="defs2" />
  <sodipodi:namedview
     id="base"
     pagecolor="#ffffff"
     bordercolor="#666666"
     borderopacity="1.0"
     inkscape:pageopacity="0.0"
     inkscape:pageshadow="2"
     inkscape:zoom="3.959798"
     inkscape:cx="155.71945"
     inkscape:cy="60.823939"
     inkscape:document-units="mm"
     inkscape:current-layer="layer1"
     showgrid="false"
     inkscape:window-width="1920"
     inkscape:window-height="1017"
     inkscape:window-x="-8"
     inkscape:window-y="-8"
     inkscape:window-maximized="1" />
  <metadata
     id="metadata5">
    <rdf:RDF>
      <cc:Work
         rdf:about="">
        <dc:format>image/svg+xml</dc:format>
        <dc:type
           rdf:resource="http://purl.org/dc/dcmitype/StillImage" />
        <dc:title></dc:title>
      </cc:Work>
    </rdf:RDF>
  </metadata>
  <g
     inkscape:label="Layer 1"
     inkscape:groupmode="layer"
     id="layer1"
     transform="translate(-23.610106,-57.971383)">
    <path
       style="opacity:1;fill:#4d4d4d;fill-opacity:0.60220999;stroke-width:1.90894973;stroke-miterlimit:4;stroke-dasharray:none"
       d="m 118.62973,246.64628 -18.18995,-26.57686 18.48581,-0.0648 c 10.1672,-0.0356 26.87997,-0.0356 37.1395,0 l 18.65368,0.0648 -18.82328,26.56947 c -10.3528,14.61321 -18.8801,26.57279 -18.94955,26.57686 -0.0695,0.004 -8.31174,-11.95219 -18.31621,-26.56947 z"
       id="path7144"
       inkscape:connector-curvature="0"
       transform="scale(0.26458333)" />
    <path
       style="opacity:1;fill:#4d4d4d;fill-opacity:0.60220999;stroke-width:1.90894973;stroke-miterlimit:4;stroke-dasharray:none"
       d="m 90.51543,315.64248 c 0.02008,-13.9521 0.10531,-40.15864 0.189403,-58.23676 l 0.152898,-32.8693 20.329319,29.56084 c 11.18113,16.25846 20.32213,29.74276 20.31333,29.96511 -0.0127,0.32059 -39.922794,55.80357 -40.791052,56.70765 -0.1389,0.14463 -0.215906,-9.83467 -0.193898,-25.12754 z"
       id="path7148"
       inkscape:connector-curvature="0"
       transform="scale(0.26458333)" />
    <path
       style="opacity:1;fill:#4d4d4d;fill-opacity:0.60220999;stroke-width:1.90894973;stroke-miterlimit:4;stroke-dasharray:none"
       d="m 190.16312,347.15999 c -2.75477,-3.43626 -47.74552,-62.98813 -47.74552,-63.19821 0,-0.13988 11.11479,-14.5443 24.69953,-32.00982 l 24.69954,-31.75549 6.21534,0.12905 c 3.41844,0.071 21.38657,0.25034 39.92919,0.39859 25.10187,0.20067 33.78775,0.34501 34.00321,0.56503 0.20569,0.21005 35.62746,50.3017 45.34311,64.12189 l 0.48637,0.69184 -22.19462,31.00169 -22.19462,31.00169 -41.19025,0.0639 -41.19025,0.0639 z"
       id="path7150"
       inkscape:connector-curvature="0"
       transform="scale(0.26458333)" />
    <path
       style="opacity:1;fill:#4d4d4d;fill-opacity:0.60220999;stroke-width:0.50507629;stroke-miterlimit:4;stroke-dasharray:none"
       d="m 26.338079,91.970191 c 0.06792,-0.105262 2.318443,-3.275872 5.001161,-7.045801 3.757068,-5.27967 4.895678,-6.836013 4.956064,-6.774326 0.04312,0.04405 1.903915,2.756125 4.135107,6.026836 2.231192,3.27071 4.370197,6.405282 4.753345,6.965711 l 0.696632,1.018966 h -9.8329 -9.832901 z"
       id="path7152"
       inkscape:connector-curvature="0" />
    <path
       style="opacity:1;fill:#4d4d4d;fill-opacity:0.60220999;stroke-width:0.50507629;stroke-miterlimit:4;stroke-dasharray:none"
       d="m 75.83829,92.161577 c 0.03584,-0.04594 2.253509,-3.165473 4.928166,-6.932303 2.67466,-3.766831 4.911624,-6.898743 4.971039,-6.959809 0.09999,-0.102775 0.460632,0.405762 4.852056,6.841889 2.609221,3.824103 4.76808,6.993602 4.797468,7.04333 0.04482,0.07584 -1.53166,0.09041 -9.780223,0.09041 -7.857127,0 -9.82056,-0.01677 -9.768506,-0.08352 z"
       id="path7154"
       inkscape:connector-curvature="0" />
    <path
       style="opacity:1;fill:#4d4d4d;fill-opacity:0.60220999;stroke-width:1.90894973;stroke-miterlimit:4;stroke-dasharray:none"
       d="m 349.96186,314.90222 c -11.25058,-15.55639 -20.45559,-28.45453 -20.45559,-28.66254 0,-0.208 9.14819,-13.67779 20.32932,-29.93286 l 20.32932,-29.55466 0.18466,41.10534 c 0.10156,22.60794 0.15839,48.80568 0.12627,58.2172 l -0.0584,17.11186 z"
       id="path7156"
       inkscape:connector-curvature="0"
       transform="scale(0.26458333)" />
    <path
       style="opacity:1;fill:#4d4d4d;fill-opacity:0.60220999;stroke-width:1.90894973;stroke-miterlimit:4;stroke-dasharray:none"
       d="m 304.73404,246.89781 -18.19578,-26.57585 36.99322,-0.064 c 20.34626,-0.0352 37.03948,-0.0177 37.09604,0.0389 0.0984,0.0984 -36.77185,52.2203 -37.39582,52.86493 -0.23642,0.24426 -4.2473,-5.4506 -18.49766,-26.26396 z"
       id="path7158"
       inkscape:connector-curvature="0"
       transform="scale(0.26458333)" />
  </g>
</svg>
