<?xml version="1.0" encoding="UTF-8" standalone="no"?>
<!-- Created with Inkscape (http://www.inkscape.org/) -->

<svg
   xmlns:dc="http://purl.org/dc/elements/1.1/"
   xmlns:cc="http://creativecommons.org/ns#"
   xmlns:rdf="http://www.w3.org/1999/02/22-rdf-syntax-ns#"
   xmlns:svg="http://www.w3.org/2000/svg"
   xmlns="http://www.w3.org/2000/svg"
   xmlns:sodipodi="http://sodipodi.sourceforge.net/DTD/sodipodi-0.dtd"
   xmlns:inkscape="http://www.inkscape.org/namespaces/inkscape"
   width="74.758965mm"
   height="34.724014mm"
   viewBox="0 0 74.758965 34.724014"
   version="1.1"
   id="svg8"
   inkscape:version="0.92.2 (5c3e80d, 2017-08-06)"
   sodipodi:docname="dropDownBackgroundOutlines.svg">
  <defs
     id="defs2" />
  <sodipodi:namedview
     id="base"
     pagecolor="#ffffff"
     bordercolor="#666666"
     borderopacity="1.0"
     inkscape:pageopacity="0.0"
     inkscape:pageshadow="2"
     inkscape:zoom="1.979899"
     inkscape:cx="164.77521"
     inkscape:cy="-16.348095"
     inkscape:document-units="mm"
     inkscape:current-layer="layer1"
     showgrid="false"
     inkscape:window-width="1920"
     inkscape:window-height="1017"
     inkscape:window-x="-8"
     inkscape:window-y="-8"
     inkscape:window-maximized="1" />
  <metadata
     id="metadata5">
    <rdf:RDF>
      <cc:Work
         rdf:about="">
        <dc:format>image/svg+xml</dc:format>
        <dc:type
           rdf:resource="http://purl.org/dc/dcmitype/StillImage" />
        <dc:title></dc:title>
      </cc:Work>
    </rdf:RDF>
  </metadata>
  <g
     inkscape:label="Layer 1"
     inkscape:groupmode="layer"
     id="layer1"
     transform="translate(-23.610106,-57.971383)">
    <path
       style="fill:none;stroke:#000000;stroke-width:0.26458332px;stroke-linecap:butt;stroke-linejoin:miter;stroke-opacity:1"
       d="M 50.648809,58.119048 72.004465,58.308036 84.288689,75.69494 72.38244,92.325892 H 50.459821 L 37.419643,75.127974 Z"
       id="path6967"
       inkscape:connector-curvature="0"
       sodipodi:nodetypes="ccccccc" />
    <path
       style="fill:none;stroke:#000000;stroke-width:0.1902456px;stroke-linecap:butt;stroke-linejoin:miter;stroke-opacity:1"
       d="M 75.525609,92.600275 85.819787,78.131231 95.696624,92.600275 Z"
       id="path7002-2"
       inkscape:connector-curvature="0"
       sodipodi:nodetypes="cccc" />
    <path
       style="fill:none;stroke:#000000;stroke-width:0.1902456px;stroke-linecap:butt;stroke-linejoin:miter;stroke-opacity:1"
       d="M 95.732818,58.126394 85.459353,72.610155 75.561829,58.155258 Z"
       id="path7002-2-5"
       inkscape:connector-curvature="0"
       sodipodi:nodetypes="cccc" />
    <path
       style="fill:none;stroke:#000000;stroke-width:0.1902456px;stroke-linecap:butt;stroke-linejoin:miter;stroke-opacity:1"
       d="M 46.498947,58.06677 36.225482,72.550532 26.327958,58.095634 Z"
       id="path7002-2-5-6"
       inkscape:connector-curvature="0"
       sodipodi:nodetypes="cccc" />
    <path
       style="fill:none;stroke:#000000;stroke-width:0.1902456px;stroke-linecap:butt;stroke-linejoin:miter;stroke-opacity:1"
       d="M 25.931218,92.459038 36.225396,77.989993 46.102233,92.459038 Z"
       id="path7002-2-0"
       inkscape:connector-curvature="0"
       sodipodi:nodetypes="cccc" />
    <path
       style="fill:none;stroke:#000000;stroke-width:0.26458332px;stroke-linecap:butt;stroke-linejoin:miter;stroke-opacity:1"
       d="M 23.874977,58.876677 23.744083,90.815396 35.072521,75.153276 23.874977,58.876677"
       id="path7100"
       inkscape:connector-curvature="0"
       sodipodi:nodetypes="cccc" />
    <path
       style="fill:none;stroke:#000000;stroke-width:0.26458332px;stroke-linecap:butt;stroke-linejoin:miter;stroke-opacity:1"
       d="M 98.104202,59.463098 98.235092,91.401815 86.906657,75.739697 98.104202,59.463098"
       id="path7100-8"
       inkscape:connector-curvature="0"
       sodipodi:nodetypes="cccc" />
    <path
       style="opacity:1;fill:#c130bf;fill-opacity:0.64516129;stroke-width:1.90894973;stroke-miterlimit:4;stroke-dasharray:none"
       d="m 118.62973,246.64628 -18.18995,-26.57686 18.48581,-0.0648 c 10.1672,-0.0356 26.87997,-0.0356 37.1395,0 l 18.65368,0.0648 -18.82328,26.56947 c -10.3528,14.61321 -18.8801,26.57279 -18.94955,26.57686 -0.0695,0.004 -8.31174,-11.95219 -18.31621,-26.56947 z"
       id="path7144"
       inkscape:connector-curvature="0"
       transform="scale(0.26458333)" />
    <path
       style="opacity:1;fill:#c130bf;fill-opacity:0.64516129;stroke-width:1.90894973;stroke-miterlimit:4;stroke-dasharray:none"
       d="m 90.51543,315.64248 c 0.02008,-13.9521 0.10531,-40.15864 0.189403,-58.23676 l 0.152898,-32.8693 20.329319,29.56084 c 11.18113,16.25846 20.32213,29.74276 20.31333,29.96511 -0.0127,0.32059 -39.922794,55.80357 -40.791052,56.70765 -0.1389,0.14463 -0.215906,-9.83467 -0.193898,-25.12754 z"
       id="path7148"
       inkscape:connector-curvature="0"
       transform="scale(0.26458333)" />
    <path
       style="opacity:1;fill:#c130bf;fill-opacity:0.64516129;stroke-width:1.90894973;stroke-miterlimit:4;stroke-dasharray:none"
       d="m 190.16312,347.15999 c -2.75477,-3.43626 -47.74552,-62.98813 -47.74552,-63.19821 0,-0.13988 11.11479,-14.5443 24.69953,-32.00982 l 24.69954,-31.75549 6.21534,0.12905 c 3.41844,0.071 21.38657,0.25034 39.92919,0.39859 25.10187,0.20067 33.78775,0.34501 34.00321,0.56503 0.20569,0.21005 35.62746,50.3017 45.34311,64.12189 l 0.48637,0.69184 -22.19462,31.00169 -22.19462,31.00169 -41.19025,0.0639 -41.19025,0.0639 z"
       id="path7150"
       inkscape:connector-curvature="0"
       transform="scale(0.26458333)" />
    <path
       style="opacity:1;fill:#c130bf;fill-opacity:0.64516129;stroke-width:1.90894973;stroke-miterlimit:4;stroke-dasharray:none"
       d="m 99.482362,348.26679 c 0.256708,-0.39784 8.762618,-12.38125 18.902028,-26.6298 14.19994,-19.95466 18.50335,-25.8369 18.73158,-25.60375 0.16296,0.16648 7.1959,10.41685 15.62875,22.77859 8.43285,12.36174 16.51728,24.20894 17.9654,26.3271 l 2.63294,3.85121 H 136.17934 99.015621 Z"
       id="path7152"
       inkscape:connector-curvature="0"
       transform="scale(0.26458333)" />
    <path
       style="opacity:1;fill:#c130bf;fill-opacity:0.64516129;stroke-width:1.90894973;stroke-miterlimit:4;stroke-dasharray:none"
       d="m 286.63291,349.17954 c 0.13544,-0.17362 8.5172,-11.96399 18.62614,-26.20083 10.10895,-14.23684 18.56362,-26.07399 18.78818,-26.30479 0.37793,-0.38844 1.74097,1.53359 18.33848,25.85911 9.86162,14.4533 18.02109,26.43251 18.13216,26.62046 0.1694,0.28664 -5.78895,0.34172 -36.96462,0.34172 -29.69623,0 -37.11708,-0.0634 -36.92034,-0.31567 z"
       id="path7154"
       inkscape:connector-curvature="0"
       transform="scale(0.26458333)" />
    <path
       style="opacity:1;fill:#c130bf;fill-opacity:0.64516129;stroke-width:1.90894973;stroke-miterlimit:4;stroke-dasharray:none"
       d="m 349.96186,314.90222 c -11.25058,-15.55639 -20.45559,-28.45453 -20.45559,-28.66254 0,-0.208 9.14819,-13.67779 20.32932,-29.93286 l 20.32932,-29.55466 0.18466,41.10534 c 0.10156,22.60794 0.15839,48.80568 0.12627,58.2172 l -0.0584,17.11186 z"
       id="path7156"
       inkscape:connector-curvature="0"
       transform="scale(0.26458333)" />
    <path
       style="opacity:1;fill:#c130bf;fill-opacity:0.64516129;stroke-width:1.90894973;stroke-miterlimit:4;stroke-dasharray:none"
       d="m 304.73404,246.89781 -18.19578,-26.57585 36.99322,-0.064 c 20.34626,-0.0352 37.03948,-0.0177 37.09604,0.0389 0.0984,0.0984 -36.77185,52.2203 -37.39582,52.86493 -0.23642,0.24426 -4.2473,-5.4506 -18.49766,-26.26396 z"
       id="path7158"
       inkscape:connector-curvature="0"
       transform="scale(0.26458333)" />
  </g>
</svg>
