<?xml version="1.0" encoding="UTF-8" standalone="no"?>
<!-- Created with Inkscape (http://www.inkscape.org/) -->

<svg
   xmlns:dc="http://purl.org/dc/elements/1.1/"
   xmlns:cc="http://creativecommons.org/ns#"
   xmlns:rdf="http://www.w3.org/1999/02/22-rdf-syntax-ns#"
   xmlns:svg="http://www.w3.org/2000/svg"
   xmlns="http://www.w3.org/2000/svg"
   xmlns:sodipodi="http://sodipodi.sourceforge.net/DTD/sodipodi-0.dtd"
   xmlns:inkscape="http://www.inkscape.org/namespaces/inkscape"
   width="136.05276mm"
   height="85.226097mm"
   viewBox="0 0 136.05277 85.226096"
   version="1.1"
   id="svg950"
   inkscape:version="0.92.2 (5c3e80d, 2017-08-06)"
   sodipodi:docname="Foreground.svg">
  <defs
     id="defs944" />
  <sodipodi:namedview
     id="base"
     pagecolor="#ffffff"
     bordercolor="#666666"
     borderopacity="1.0"
     inkscape:pageopacity="0.0"
     inkscape:pageshadow="2"
     inkscape:zoom="1.979899"
     inkscape:cx="252.68652"
     inkscape:cy="123.16102"
     inkscape:document-units="mm"
     inkscape:current-layer="layer1"
     showgrid="false"
     inkscape:window-width="1920"
     inkscape:window-height="1017"
     inkscape:window-x="-8"
     inkscape:window-y="-8"
     inkscape:window-maximized="1" />
  <metadata
     id="metadata947">
    <rdf:RDF>
      <cc:Work
         rdf:about="">
        <dc:format>image/svg+xml</dc:format>
        <dc:type
           rdf:resource="http://purl.org/dc/dcmitype/StillImage" />
        <dc:title></dc:title>
      </cc:Work>
    </rdf:RDF>
  </metadata>
  <g
     inkscape:label="Layer 1"
     inkscape:groupmode="layer"
     id="layer1"
     transform="translate(-40.302529,-113.54575)">
    <path
       style="opacity:0.74500002;fill:#1c2224;fill-opacity:0.91764706;stroke-width:3.81789947;stroke-miterlimit:4;stroke-dasharray:none"
       d="m 152.43685,710.07877 c 0.17157,-9.02824 0.7441,-75.43774 0.32152,-146.96751 -0.42405,-71.77862 -0.38418,-133.73893 -0.38418,-133.73893 2.8737,-0.0612 35.76323,-0.0498 76.28642,-0.12394 39.85582,-0.073 91.8783,0.0883 116.0173,0.16781 24.00654,0.0791 46.16658,-0.0778 46.27035,0.026 0.14919,0.14919 -236.5498,294.63162 -238.34883,296.54649 -0.2962,0.31527 -0.3573,-5.66365 -0.16258,-15.9099 z M 287.05344,552.51852 c 0,-1.26786 -15.70215,-116.61702 -16.03397,-117.78673 -0.37477,-1.32111 -1.25761,-0.74416 -53.91909,35.23673 -29.44595,20.1189 -55.21474,37.74497 -57.26399,39.16904 l -3.72591,2.58922 8.77667,2.78408 c 4.82717,1.53125 34.00523,10.80534 64.84014,20.6091 30.8349,9.80375 56.34757,17.8374 56.69481,17.85255 0.34724,0.0151 0.63134,-0.18915 0.63134,-0.45399 z"
       id="path1649"
       inkscape:connector-curvature="0"
       transform="scale(0.26458333)"
       sodipodi:nodetypes="sscssscsssssccscss" />
    <path
       style="opacity:0.74500002;fill:#1c2224;fill-opacity:0.91764706;stroke-width:3.81789947;stroke-miterlimit:4;stroke-dasharray:none"
       d="M 548.26607,576.97682 C 483.38438,496.01031 430.54876,429.53943 430.7074,429.38078 c 0.15865,-0.15864 27.27944,-0.40279 60.26842,-0.0518 32.98899,-0.40778 84.48868,0.0118 115.1878,-0.0199 30.61154,-0.0316 60.00708,-0.14475 60.19824,0.0464 0.35811,0.35811 0.10109,278.9979 -0.12323,289.21506 l 0.14242,5.80314 z m 31.97017,-40.37024 c 79.24293,-25.13373 81.17227,-25.75958 81.03188,-26.28548 -0.1451,-0.54351 -113.59443,-78.20353 -113.85812,-77.93984 -0.087,0.087 -3.70541,26.40956 -8.04082,58.49449 -4.33541,32.08492 -8.00892,58.96126 -8.16336,59.72519 -0.15444,0.76392 -0.0986,1.38896 0.12416,1.38896 0.22273,0 22.23054,-6.92249 48.90626,-15.38332 z"
       id="path1651"
       inkscape:connector-curvature="0"
       transform="scale(0.26458333)"
       sodipodi:nodetypes="sccssccsscsscss" />
    <path
       style="opacity:0.74500002;fill:#1c2224;fill-opacity:0.91764706;stroke-width:3.81789947;stroke-miterlimit:4;stroke-dasharray:none"
       d="m 516.92498,749.40055 c 0.69924,-0.93148 15.99338,-22.55559 33.98697,-48.05357 l 32.71561,-46.35998 38.03237,47.62267 c 20.91781,26.19246 38.13839,48.31206 38.13839,48.31206 -6.9149,0.0354 -32.44812,0.29619 -72.01934,0.25234 l -72.12536,-0.0799 z m 75.78916,-20.63306 c 2.94718,-0.84605 6.57368,-3.58443 8.15921,-6.16108 2.90634,-4.72307 2.27771,-11.59439 -1.46022,-15.96132 -4.00997,-4.68475 -12.0574,-6.41206 -19.43428,-4.1714 -3.12474,0.94911 -4.10385,1.54543 -6.54393,3.98551 -3.45807,3.45807 -5.3324,7.70416 -4.8211,10.92172 1.31539,8.27755 7.98429,12.72863 18.20239,12.14897 2.22234,-0.12607 4.87641,-0.46916 5.89793,-0.7624 z"
       id="path1653"
       inkscape:connector-curvature="0"
       transform="scale(0.26458333)"
       sodipodi:nodetypes="cscscsccccssscsc" />
    <path
       style="opacity:0.74500002;fill:#1c2224;fill-opacity:0.91764706;stroke-width:3.81789947;stroke-miterlimit:4;stroke-dasharray:none"
       d="m 180.58525,751.05805 -26.26567,0.0978 34.32306,-45.37021 c 18.50185,-24.45682 35.5236,-45.46346 36.99093,-47.32346 l 2.66789,-3.38183 34.55302,47.28366 c 19.00416,26.00601 37.66781,48.68441 37.66781,48.68441 0,0 -69.68779,0.40947 -115.65132,0.0989 z m 51.01121,-20.33338 c 7.32378,-1.55233 11.61575,-6.44077 11.6664,-13.28771 0.0523,-7.07385 -4.68522,-12.50717 -12.16732,-13.95429 -8.79706,-1.70143 -17.25164,2.1 -20.58261,9.25455 -3.52354,7.56818 1.00836,15.94892 9.73633,18.00521 2.74852,0.64754 8.24896,0.63893 11.3472,-0.0178 z"
       id="path1655"
       inkscape:connector-curvature="0"
       transform="scale(0.26458333)"
       sodipodi:nodetypes="ccsccsccccccsccc" />
    <path
       style="opacity:0.74500002;fill:#1c2224;fill-opacity:0.91764706;stroke-width:3.81789947;stroke-miterlimit:4;stroke-dasharray:none"
       d="m 346.65244,503.7647 c 0,-0.23715 58.04972,-66.30106 61.6161,-70.12264 0.81627,-0.87469 2.29921,0.71989 31.70579,34.09265 l 30.84946,35.01025 -14.2297,0.31485 c -21.83322,0.48309 -109.94165,1.048 -109.94165,0.70489 z m 68.94292,-13.48583 c 4.30751,-1.05734 7.98406,-4.06587 9.68372,-7.9242 1.07293,-2.43563 1.07473,-7.84748 0.004,-10.33764 -1.39595,-3.24478 -3.74761,-5.75131 -6.80423,-7.25231 -2.65086,-1.3017 -3.3508,-1.41571 -8.69141,-1.41571 -4.88724,0 -6.1829,0.17309 -8.16995,1.09141 -5.00332,2.31232 -8.92701,7.43741 -9.39103,12.26648 -0.99245,10.32866 10.17072,16.81178 23.36936,13.57197 z"
       id="path1657"
       inkscape:connector-curvature="0"
       transform="scale(0.26458333)" />
    <path
       style="opacity:0.74500002;fill:#1c2224;fill-opacity:0.91764706;stroke-width:3.81789947;stroke-miterlimit:4;stroke-dasharray:none"
       d="m 284.82744,693.66192 c -22.6124,-31.32562 -41.21721,-57.0134 -41.12524,-57.2424 0.092,-0.229 21.18972,-27.04702 46.88388,-59.59559 l 46.71667,-59.17922 22.22625,-2.9e-4 c 12.22443,-1.6e-4 43.82759,-0.15096 70.22923,-0.33511 l 48.00298,-0.33481 43.88332,58.79769 c 24.13583,32.33872 44.172,59.14287 44.52483,59.56477 0.54321,0.64954 -5.41914,9.51162 -38.90847,57.83123 l -39.37141,58.04628 -80.88479,-0.14004 -80.70622,0.0385 z m 139.85929,9.11163 c 18.83532,-2.94306 32.62564,-9.22873 43.90533,-20.01218 10.39355,-9.93631 17.16519,-22.90644 20.54581,-39.35267 1.01037,-4.91535 1.19354,-7.28381 1.19132,-15.40482 -0.003,-8.7595 -0.12679,-10.12159 -1.4263,-15.61765 -5.84631,-24.72602 -19.13913,-42.80655 -38.62893,-52.54203 -15.71774,-7.85128 -39.13244,-10.3307 -59.83114,-6.33562 -10.81445,2.08732 -21.88493,6.65967 -30.77429,12.71045 -5.88027,4.00256 -15.35152,13.3622 -19.55472,19.32425 -6.76955,9.60232 -12.16725,21.21356 -15.15448,32.5995 -2.01153,7.66703 -2.26477,10.40593 -1.56862,16.96501 2.96352,27.92166 16.31686,48.73811 38.35731,59.79496 8.2161,4.1217 19.91598,7.32143 31.37144,8.57959 6.14098,0.67446 25.49587,0.23988 31.56727,-0.70879 z"
       id="path1659"
       inkscape:connector-curvature="0"
       transform="scale(0.26458333)"
       sodipodi:nodetypes="scscsscscscccscsccsssssscscc" />
  </g>
</svg>
